<mxfile host="app.diagrams.net" modified="2025-01-21T18:18:23.062Z" agent="Mozilla/5.0 (Windows NT 10.0; Win64; x64) AppleWebKit/537.36 (KHTML, like Gecko) Chrome/131.0.0.0 Safari/537.36" etag="mfLmzoqOy3OXaiRHRKh9" version="24.2.1" type="device">
  <diagram name="Page-1" id="QlBskXbmc_vEUIDBZioL">
    <mxGraphModel dx="1235" dy="614" grid="1" gridSize="10" guides="1" tooltips="1" connect="1" arrows="1" fold="1" page="1" pageScale="1" pageWidth="850" pageHeight="1100" math="0" shadow="0">
      <root>
        <mxCell id="0" />
        <mxCell id="1" parent="0" />
        <mxCell id="9M1CDPCW8UbOOLQoU40Z-14" style="edgeStyle=orthogonalEdgeStyle;rounded=0;orthogonalLoop=1;jettySize=auto;html=1;entryX=0;entryY=0.25;entryDx=0;entryDy=0;" edge="1" parent="1" source="9M1CDPCW8UbOOLQoU40Z-1" target="9M1CDPCW8UbOOLQoU40Z-13">
          <mxGeometry relative="1" as="geometry" />
        </mxCell>
        <mxCell id="9M1CDPCW8UbOOLQoU40Z-15" value="false (if no strings after looping)" style="edgeLabel;html=1;align=center;verticalAlign=middle;resizable=0;points=[];" vertex="1" connectable="0" parent="9M1CDPCW8UbOOLQoU40Z-14">
          <mxGeometry x="-0.0134" y="-2" relative="1" as="geometry">
            <mxPoint as="offset" />
          </mxGeometry>
        </mxCell>
        <mxCell id="9M1CDPCW8UbOOLQoU40Z-16" style="edgeStyle=orthogonalEdgeStyle;rounded=0;orthogonalLoop=1;jettySize=auto;html=1;" edge="1" parent="1" source="9M1CDPCW8UbOOLQoU40Z-1">
          <mxGeometry relative="1" as="geometry">
            <mxPoint x="425.5" y="530" as="targetPoint" />
          </mxGeometry>
        </mxCell>
        <mxCell id="9M1CDPCW8UbOOLQoU40Z-18" value="true" style="edgeLabel;html=1;align=center;verticalAlign=middle;resizable=0;points=[];" vertex="1" connectable="0" parent="9M1CDPCW8UbOOLQoU40Z-16">
          <mxGeometry x="-0.3633" y="2" relative="1" as="geometry">
            <mxPoint as="offset" />
          </mxGeometry>
        </mxCell>
        <mxCell id="9M1CDPCW8UbOOLQoU40Z-21" style="edgeStyle=orthogonalEdgeStyle;rounded=0;orthogonalLoop=1;jettySize=auto;html=1;entryX=0.5;entryY=0;entryDx=0;entryDy=0;" edge="1" parent="1" source="9M1CDPCW8UbOOLQoU40Z-1" target="9M1CDPCW8UbOOLQoU40Z-17">
          <mxGeometry relative="1" as="geometry" />
        </mxCell>
        <mxCell id="9M1CDPCW8UbOOLQoU40Z-1" value="Any string in user input?" style="rhombus;whiteSpace=wrap;html=1;" vertex="1" parent="1">
          <mxGeometry x="348" y="420" width="155" height="80" as="geometry" />
        </mxCell>
        <mxCell id="9M1CDPCW8UbOOLQoU40Z-7" style="edgeStyle=orthogonalEdgeStyle;rounded=0;orthogonalLoop=1;jettySize=auto;html=1;entryX=0.5;entryY=0;entryDx=0;entryDy=0;" edge="1" parent="1" source="9M1CDPCW8UbOOLQoU40Z-2" target="9M1CDPCW8UbOOLQoU40Z-6">
          <mxGeometry relative="1" as="geometry" />
        </mxCell>
        <mxCell id="9M1CDPCW8UbOOLQoU40Z-2" value="&quot;Add Category&quot; button clicked" style="shape=parallelogram;perimeter=parallelogramPerimeter;whiteSpace=wrap;html=1;fixedSize=1;" vertex="1" parent="1">
          <mxGeometry x="335" y="150" width="180" height="60" as="geometry" />
        </mxCell>
        <mxCell id="9M1CDPCW8UbOOLQoU40Z-3" value="Navigate to ExpiryPage" style="ellipse;whiteSpace=wrap;html=1;" vertex="1" parent="1">
          <mxGeometry x="365" y="50" width="120" height="80" as="geometry" />
        </mxCell>
        <mxCell id="9M1CDPCW8UbOOLQoU40Z-5" style="edgeStyle=orthogonalEdgeStyle;rounded=0;orthogonalLoop=1;jettySize=auto;html=1;entryX=0.5;entryY=0;entryDx=0;entryDy=0;" edge="1" parent="1" source="9M1CDPCW8UbOOLQoU40Z-3" target="9M1CDPCW8UbOOLQoU40Z-2">
          <mxGeometry relative="1" as="geometry" />
        </mxCell>
        <mxCell id="9M1CDPCW8UbOOLQoU40Z-9" style="edgeStyle=orthogonalEdgeStyle;rounded=0;orthogonalLoop=1;jettySize=auto;html=1;entryX=0.5;entryY=0;entryDx=0;entryDy=0;" edge="1" parent="1" source="9M1CDPCW8UbOOLQoU40Z-6" target="9M1CDPCW8UbOOLQoU40Z-8">
          <mxGeometry relative="1" as="geometry" />
        </mxCell>
        <mxCell id="9M1CDPCW8UbOOLQoU40Z-6" value="Displays prompt for new category" style="rounded=0;whiteSpace=wrap;html=1;" vertex="1" parent="1">
          <mxGeometry x="365" y="240" width="120" height="50" as="geometry" />
        </mxCell>
        <mxCell id="9M1CDPCW8UbOOLQoU40Z-12" style="edgeStyle=orthogonalEdgeStyle;rounded=0;orthogonalLoop=1;jettySize=auto;html=1;" edge="1" parent="1" source="9M1CDPCW8UbOOLQoU40Z-8" target="9M1CDPCW8UbOOLQoU40Z-1">
          <mxGeometry relative="1" as="geometry" />
        </mxCell>
        <mxCell id="9M1CDPCW8UbOOLQoU40Z-8" value="Receives user input" style="shape=parallelogram;perimeter=parallelogramPerimeter;whiteSpace=wrap;html=1;fixedSize=1;" vertex="1" parent="1">
          <mxGeometry x="335" y="330" width="180" height="60" as="geometry" />
        </mxCell>
        <mxCell id="9M1CDPCW8UbOOLQoU40Z-13" value="&quot;Hey, you sure you don&#39;t any letters for the name? Hope you&#39;re not trying to break my program&quot;" style="rounded=0;whiteSpace=wrap;html=1;" vertex="1" parent="1">
          <mxGeometry x="680" y="440" width="120" height="70" as="geometry" />
        </mxCell>
        <mxCell id="9M1CDPCW8UbOOLQoU40Z-19" style="edgeStyle=orthogonalEdgeStyle;rounded=0;orthogonalLoop=1;jettySize=auto;html=1;entryX=0.5;entryY=0;entryDx=0;entryDy=0;" edge="1" parent="1" source="9M1CDPCW8UbOOLQoU40Z-17" target="9M1CDPCW8UbOOLQoU40Z-22">
          <mxGeometry relative="1" as="geometry">
            <mxPoint x="425.5" y="629.9999999999998" as="targetPoint" />
          </mxGeometry>
        </mxCell>
        <mxCell id="9M1CDPCW8UbOOLQoU40Z-17" value="expiryDatabase.SaveCategoryAsync(input)" style="rounded=0;whiteSpace=wrap;html=1;" vertex="1" parent="1">
          <mxGeometry x="288" y="530" width="274.5" height="40" as="geometry" />
        </mxCell>
        <mxCell id="9M1CDPCW8UbOOLQoU40Z-22" value="reassign ItemsSource of picker and whatever makes it refresh" style="rounded=0;whiteSpace=wrap;html=1;" vertex="1" parent="1">
          <mxGeometry x="338.25" y="600" width="174.5" height="60" as="geometry" />
        </mxCell>
      </root>
    </mxGraphModel>
  </diagram>
</mxfile>
